<svg data-v-fde0c5aa="" xmlns="http://www.w3.org/2000/svg" viewBox="0 0 300 300" class="iconLeft"><!----><defs data-v-fde0c5aa=""><linearGradient data-v-fde0c5aa="" gradientTransform="rotate(25)" id="3c6ad657-fab8-49cd-855d-fabf6e223c4f" x1="0%" y1="0%" x2="100%" y2="0%"><stop data-v-fde0c5aa="" offset="0%" stop-color="#410FF8" stop-opacity="1"></stop><stop data-v-fde0c5aa="" offset="100%" stop-color="#410FF8" stop-opacity="1"></stop></linearGradient></defs><rect data-v-fde0c5aa="" fill="url(#3c6ad657-fab8-49cd-855d-fabf6e223c4f)" x="0" y="0" width="300px" height="300px" class="logo-background-square"></rect><defs data-v-fde0c5aa=""><!----></defs><g data-v-fde0c5aa="" id="e2626024-e4cd-4c0f-b8e9-e125f5d8303c" fill="#ffffff" transform="matrix(2.5213432350980205,0,0,2.5213432350980205,90.28838834237855,118.58406319449705)"><path d="M1.93 17.60L0.92 17.60L0.92 7.24L1.93 7.24L1.93 11.73L6.64 11.73L6.64 7.24L7.65 7.24L7.65 17.60L6.64 17.60L6.64 12.58L1.93 12.58L1.93 17.60ZM9.67 16.58L9.67 16.58L9.67 16.58Q9.34 16.08 9.16 15.47L9.16 15.47L9.16 15.47Q8.99 14.85 8.99 14.18L8.99 14.18L8.99 14.18Q8.99 13.50 9.08 12.94L9.08 12.94L9.08 12.94Q9.18 12.39 9.34 12.00L9.34 12.00L9.34 12.00Q9.50 11.61 9.72 11.30L9.72 11.30L9.72 11.30Q9.95 11.00 10.19 10.81L10.19 10.81L10.19 10.81Q10.42 10.63 10.71 10.51L10.71 10.51L10.71 10.51Q11.19 10.31 11.63 10.31L11.63 10.31L11.63 10.31Q12.07 10.31 12.37 10.39L12.37 10.39L12.37 10.39Q12.68 10.47 13.03 10.71L13.03 10.71L13.03 10.71Q13.38 10.95 13.64 11.35L13.64 11.35L13.64 11.35Q14.23 12.28 14.23 14.09L14.23 14.09L9.89 14.09L9.89 14.09Q9.89 15.91 10.81 16.58L10.81 16.58L10.81 16.58Q11.27 16.91 11.83 16.91L11.83 16.91L11.83 16.91Q12.89 16.91 13.62 15.60L13.62 15.60L14.25 16.03L14.25 16.03Q13.98 16.52 13.55 16.92L13.55 16.92L13.55 16.92Q12.73 17.67 11.93 17.67L11.93 17.67L11.93 17.67Q11.13 17.67 10.57 17.38L10.57 17.38L10.57 17.38Q10.01 17.08 9.67 16.58ZM9.93 13.32L9.93 13.32L13.32 13.32L13.32 13.32Q13.32 12.30 12.85 11.63L12.85 11.63L12.85 11.63Q12.46 11.07 11.72 11.07L11.72 11.07L11.72 11.07Q10.53 11.07 10.12 12.18L10.12 12.18L10.12 12.18Q9.93 12.70 9.93 13.32ZM15.29 15.84L15.29 15.84L15.29 15.84Q15.29 15.35 15.42 14.98L15.42 14.98L15.42 14.98Q15.54 14.62 15.80 14.33L15.80 14.33L15.80 14.33Q16.06 14.05 16.40 13.83L16.40 13.83L16.40 13.83Q16.73 13.61 17.23 13.43L17.23 13.43L17.23 13.43Q18.14 13.11 19.46 12.85L19.46 12.85L19.46 12.85Q19.46 11.77 19.04 11.41L19.04 11.41L19.04 11.41Q18.67 11.09 17.96 11.09L17.96 11.09L17.96 11.09Q17.10 11.09 16.48 11.74L16.48 11.74L16.48 11.74Q16.21 12.01 16.11 12.22L16.11 12.22L15.46 11.79L15.46 11.79Q16.23 10.32 18.07 10.32L18.07 10.32L18.07 10.32Q19.71 10.32 20.17 11.59L20.17 11.59L20.17 11.59Q20.36 12.10 20.36 12.83L20.36 12.83L20.36 16.58L20.36 16.58Q20.36 16.78 20.43 17.12L20.43 17.12L20.43 17.12Q20.51 17.47 20.57 17.60L20.57 17.60L19.66 17.60L19.66 17.60Q19.46 17.49 19.46 16.45L19.46 16.45L19.46 16.45Q18.49 17.68 17.33 17.68L17.33 17.68L17.33 17.68Q16.04 17.68 15.54 16.78L15.54 16.78L15.54 16.78Q15.29 16.32 15.29 15.84ZM16.37 15.05L16.37 15.05L16.37 15.05Q16.19 15.37 16.19 15.87L16.19 15.87L16.19 15.87Q16.19 16.38 16.55 16.65L16.55 16.65L16.55 16.65Q16.91 16.92 17.34 16.92L17.34 16.92L17.34 16.92Q17.77 16.92 18.10 16.79L18.10 16.79L18.10 16.79Q18.44 16.66 18.71 16.45L18.71 16.45L18.71 16.45Q19.21 16.08 19.46 15.78L19.46 15.78L19.46 13.62L19.46 13.62Q18.16 13.95 17.92 14.03L17.92 14.03L17.92 14.03Q16.71 14.42 16.37 15.05ZM22.93 17.61L22.03 17.61L22.03 7.24L22.93 7.24L22.93 17.61ZM25.46 11.15L24.24 11.15L24.24 10.38L25.46 10.38L25.46 7.75L26.36 7.75L26.36 10.38L28.01 10.38L28.01 11.15L26.36 11.15L26.36 15.72L26.36 15.72Q26.36 16.41 26.57 16.67L26.57 16.67L26.57 16.67Q26.78 16.92 27.27 16.92L27.27 16.92L27.27 16.92Q27.47 16.92 27.74 16.88L27.74 16.88L27.74 16.88Q28.01 16.85 28.01 16.84L28.01 16.84L28.01 17.52L28.01 17.52Q27.56 17.68 27.14 17.68L27.14 17.68L27.14 17.68Q26.71 17.68 26.55 17.66L26.55 17.66L26.55 17.66Q26.39 17.64 26.17 17.53L26.17 17.53L26.17 17.53Q25.94 17.42 25.80 17.23L25.80 17.23L25.80 17.23Q25.46 16.75 25.46 15.72L25.46 15.72L25.46 11.15ZM29.92 17.60L29.02 17.60L29.02 7.24L29.92 7.24L29.92 11.57L29.92 11.57Q30.93 10.60 31.58 10.40L31.58 10.40L31.58 10.40Q31.92 10.31 32.28 10.31L32.28 10.31L32.28 10.31Q33.07 10.31 33.57 10.79L33.57 10.79L33.57 10.79Q34.08 11.27 34.08 12.22L34.08 12.22L34.08 17.60L33.17 17.60L33.17 12.22L33.17 12.22Q33.17 11.71 32.81 11.39L32.81 11.39L32.81 11.39Q32.44 11.07 32.02 11.07L32.02 11.07L32.02 11.07Q31.01 11.07 29.92 12.26L29.92 12.26L29.92 17.60ZM41.45 8.09L38.50 8.09L38.50 7.24L45.42 7.24L45.42 8.09L42.46 8.09L42.46 17.60L41.45 17.60L41.45 8.09ZM46.02 17.60L45.12 17.60L45.12 17.60Q45.12 17.60 45.12 10.38L45.12 10.38L46.02 10.38L46.02 12.33L46.02 12.33Q46.34 11.61 46.51 11.35L46.51 11.35L46.51 11.35Q47.18 10.31 48.25 10.31L48.25 10.31L48.25 10.31Q48.33 10.31 48.49 10.32L48.49 10.32L48.49 11.09L48.49 11.09Q48.03 11.15 47.72 11.26L47.72 11.26L47.72 11.26Q47.41 11.38 47.12 11.62L47.12 11.62L47.12 11.62Q46.61 12.04 46.02 13.31L46.02 13.31L46.02 17.60ZM49.07 15.84L49.07 15.84L49.07 15.84Q49.07 15.35 49.19 14.98L49.19 14.98L49.19 14.98Q49.31 14.62 49.58 14.33L49.58 14.33L49.58 14.33Q49.84 14.05 50.18 13.83L50.18 13.83L50.18 13.83Q50.51 13.61 51.01 13.43L51.01 13.43L51.01 13.43Q51.92 13.11 53.23 12.85L53.23 12.85L53.23 12.85Q53.23 11.77 52.81 11.41L52.81 11.41L52.81 11.41Q52.45 11.09 51.74 11.09L51.74 11.09L51.74 11.09Q50.88 11.09 50.26 11.74L50.26 11.74L50.26 11.74Q49.99 12.01 49.89 12.22L49.89 12.22L49.24 11.79L49.24 11.79Q50.00 10.32 51.84 10.32L51.84 10.32L51.84 10.32Q53.49 10.32 53.95 11.59L53.95 11.59L53.95 11.59Q54.13 12.10 54.13 12.83L54.13 12.83L54.13 16.58L54.13 16.58Q54.13 16.78 54.21 17.12L54.21 17.12L54.21 17.12Q54.28 17.47 54.35 17.60L54.35 17.60L53.44 17.60L53.44 17.60Q53.23 17.49 53.23 16.45L53.23 16.45L53.23 16.45Q52.27 17.68 51.11 17.68L51.11 17.68L51.11 17.68Q49.82 17.68 49.32 16.78L49.32 16.78L49.32 16.78Q49.07 16.32 49.07 15.84ZM50.14 15.05L50.14 15.05L50.14 15.05Q49.97 15.37 49.97 15.87L49.97 15.87L49.97 15.87Q49.97 16.38 50.33 16.65L50.33 16.65L50.33 16.65Q50.68 16.92 51.12 16.92L51.12 16.92L51.12 16.92Q51.55 16.92 51.88 16.79L51.88 16.79L51.88 16.79Q52.21 16.66 52.49 16.45L52.49 16.45L52.49 16.45Q52.99 16.08 53.23 15.78L53.23 15.78L53.23 13.62L53.23 13.62Q51.93 13.95 51.69 14.03L51.69 14.03L51.69 14.03Q50.49 14.42 50.14 15.05ZM55.43 14.04L55.43 14.04L55.43 14.04Q55.43 10.31 58.34 10.31L58.34 10.31L58.34 10.31Q59.06 10.31 59.55 10.65L59.55 10.65L59.55 10.65Q60.03 10.99 60.19 11.27L60.19 11.27L60.19 11.27Q60.46 11.73 60.57 12.04L60.57 12.04L59.84 12.37L59.84 12.37Q59.83 12.23 59.69 11.96L59.69 11.96L59.69 11.96Q59.56 11.70 59.41 11.53L59.41 11.53L59.41 11.53Q59.26 11.35 58.98 11.21L58.98 11.21L58.98 11.21Q58.69 11.07 58.34 11.07L58.34 11.07L58.34 11.07Q56.33 11.07 56.33 13.98L56.33 13.98L56.33 13.98Q56.33 15.39 56.86 16.15L56.86 16.15L56.86 16.15Q57.39 16.91 58.34 16.91L58.34 16.91L58.34 16.91Q58.99 16.91 59.42 16.41L59.42 16.41L59.42 16.41Q59.79 15.98 59.92 15.64L59.92 15.64L59.99 15.49L60.70 15.83L60.70 15.83Q60.46 16.50 59.91 17.04L59.91 17.04L59.91 17.04Q59.66 17.27 59.24 17.47L59.24 17.47L59.24 17.47Q58.82 17.67 58.34 17.67L58.34 17.67L58.34 17.67Q56.85 17.67 56.14 16.72L56.14 16.72L56.14 16.72Q55.43 15.76 55.43 14.04ZM63.04 17.60L62.14 17.60L62.14 7.24L63.04 7.24L63.04 13.95L65.80 10.38L66.88 10.38L65.00 12.84L67.31 17.60L66.31 17.60L64.38 13.62L63.04 15.28L63.04 17.60Z"></path></g><defs data-v-fde0c5aa=""><!----></defs><g data-v-fde0c5aa="" id="ce5ea71e-e7dc-4213-8d9c-8f30a6a80e12" stroke="none" fill="#ffffff" transform="matrix(0.4199130427268932,0,0,0.4199130427268932,38.808459658640146,129.00420349772295)"><g color="#000" font-weight="400" font-family="sans-serif" white-space="normal"><path style="line-height:normal;text-indent:0;text-align:start;text-decoration-line:none;text-decoration-style:solid;text-decoration-color:#000;text-transform:none;block-progression:tb;isolation:auto;mix-blend-mode:normal" d="M50.306 2.996c12.086-.268 23.875 4.629 31.834 14.412l6.31 7.758C102.6 42.56 99.17 68.655 80.655 83.72l-3.88 3.156c-17.555 14.283-42.055 13.26-56.61-1.707l2.337-1.902-.293-.36c13.71 13.882 36.587 14.73 52.881 1.473l3.461-2.816C95.818 67.513 99.093 43 85.785 26.643l-5.633-6.924C66.843 3.36 42.178 1.579 24.91 15.627l-3.463 2.816c-17.269 14.05-20.54 38.56-7.23 54.918l5.632 6.924c.42.518.852 1.02 1.295 1.508l-2.338 1.902c-.318-.362-.638-.722-.945-1.1l-6.31-7.757C-2.6 57.445.828 31.349 19.344 16.285l3.879-3.156c8.1-6.59 17.682-9.924 27.082-10.133z" overflow="visible"></path><path style="line-height:normal;text-indent:0;text-align:start;text-decoration-line:none;text-decoration-style:solid;text-decoration-color:#000;text-transform:none;block-progression:tb;isolation:auto;mix-blend-mode:normal" d="M50.275 8.158c10.755-.24 21.242 4.118 28.324 12.823l5.633 6.923c12.59 15.476 9.54 38.696-6.944 52.106l-3.46 2.816C57.345 96.236 33.99 94.5 21.4 79.024l-.64-.788 2.327-1.892.3.367c11.747 14.44 33.52 16.014 48.755 3.62l3.045-2.477C90.422 65.459 93.314 43.82 81.566 29.38l-4.955-6.09C64.863 8.851 43.09 7.281 27.855 19.676l-3.043 2.476C9.577 34.547 6.685 56.182 18.433 70.623l3.393 4.168-2.329 1.895-3.73-4.586c-12.59-15.476-9.541-38.696 6.941-52.106l3.463-2.816c7.212-5.867 15.739-8.833 24.104-9.02z" overflow="visible"></path><path style="line-height:normal;text-indent:0;text-align:start;text-decoration-line:none;text-decoration-style:solid;text-decoration-color:#000;text-transform:none;block-progression:tb;isolation:auto;mix-blend-mode:normal" d="M50.242 13.318c9.424-.21 18.614 3.609 24.818 11.235l4.953 6.09c11.03 13.557 8.362 33.904-6.088 45.66l-3.045 2.476C56.43 90.535 35.97 89.007 24.94 75.45l-3.455-4.246 2.328-1.892 3.115 3.828c10.188 12.523 29.068 13.883 42.27 3.142l2.627-2.136c13.201-10.74 15.711-29.503 5.523-42.026l-4.273-5.254c-10.188-12.522-29.07-13.883-42.272-3.142l-2.627 2.136c-13.157 10.705-15.69 29.375-5.623 41.897l-2.33 1.896-.238-.293c-11.03-13.557-8.36-33.9 6.09-45.656l3.043-2.476c6.321-5.143 13.794-7.745 21.125-7.909z" overflow="visible"></path><path style="line-height:normal;text-indent:0;text-align:start;text-decoration-line:none;text-decoration-style:solid;text-decoration-color:#000;text-transform:none;block-progression:tb;isolation:auto;mix-blend-mode:normal" d="M50.21 18.48c8.094-.18 15.984 3.1 21.31 9.647l4.276 5.254c9.47 11.64 7.182 29.11-5.234 39.21l-2.627 2.14c-12.417 10.101-29.987 8.786-39.457-2.854l-4.275-5.254a26.016 26.016 0 0 1-1.842-2.58l2.398-1.951a23.658 23.658 0 0 0 2.11 3.055l3.597 4.42c8.628 10.605 24.615 11.754 35.783 2.667l2.21-1.798c11.168-9.087 13.3-24.973 4.671-35.578l-3.597-4.42c-8.628-10.605-24.615-11.753-35.784-2.666l-2.21 1.798c-9.564 7.78-12.492 20.543-7.721 30.71l-2.467 2.007c-5.932-11.319-2.866-25.963 8.088-34.875l2.627-2.138c5.432-4.42 11.85-6.653 18.144-6.793z" overflow="visible"></path><path style="line-height:normal;text-indent:0;text-align:start;text-decoration-line:none;text-decoration-style:solid;text-decoration-color:#000;text-transform:none;block-progression:tb;isolation:auto;mix-blend-mode:normal" d="M50.18 23.64c6.762-.151 13.353 2.59 17.802 8.06l3.597 4.42c7.91 9.722 6 24.317-4.382 32.765l-2.211 1.797c-10.384 8.447-25.06 7.345-32.969-2.377l-3.596-4.42a21.563 21.563 0 0 1-4.074-7.902l2.738-2.229a19.26 19.26 0 0 0 4.002 8.654l2.916 3.586c7.068 8.688 20.164 9.624 29.3 2.192l1.792-1.46c9.136-7.432 10.884-20.443 3.817-29.13l-2.918-3.588c-7.068-8.687-20.164-9.62-29.3-2.188l-1.79 1.457c-5.735 4.666-8.556 11.529-8.116 18.141l-2.923 2.379c-1.361-8.07 1.761-16.84 8.935-22.676l2.211-1.799c4.543-3.695 9.908-5.563 15.168-5.681z" overflow="visible"></path><path style="line-height:normal;text-indent:0;text-align:start;text-decoration-line:none;text-decoration-style:solid;text-decoration-color:#000;text-transform:none;block-progression:tb;isolation:auto;mix-blend-mode:normal" d="M50.146 28.803c5.432-.123 10.725 2.079 14.297 6.469l2.918 3.586c6.35 7.804 4.82 19.525-3.53 26.318l-1.79 1.457c-8.35 6.793-20.135 5.904-26.485-1.9l-2.918-3.588c-6.35-7.805-4.823-19.522 3.527-26.315l1.793-1.459c3.654-2.972 7.963-4.473 12.188-4.568z" overflow="visible"></path></g></g><!----></svg>