<svg data-v-423bf9ae="" xmlns="http://www.w3.org/2000/svg" viewBox="0 0 381.5517011119075 60" class="font"><!----><!----><!----><g data-v-423bf9ae="" id="01e7653d-df59-4763-b3ee-6bf9e3e5862d" fill="white" transform="matrix(5.7471261427876925,0,0,5.7471261427876925,-5.2873488374235365,-41.6091910046958)"><path d="M1.93 17.60L0.92 17.60L0.92 7.24L1.93 7.24L1.93 11.73L6.64 11.73L6.64 7.24L7.65 7.24L7.65 17.60L6.64 17.60L6.64 12.58L1.93 12.58L1.93 17.60ZM9.67 16.58L9.67 16.58L9.67 16.58Q9.34 16.08 9.16 15.47L9.16 15.47L9.16 15.47Q8.99 14.85 8.99 14.18L8.99 14.18L8.99 14.18Q8.99 13.50 9.08 12.94L9.08 12.94L9.08 12.94Q9.18 12.39 9.34 12.00L9.34 12.00L9.34 12.00Q9.50 11.61 9.72 11.30L9.72 11.30L9.72 11.30Q9.95 11.00 10.19 10.81L10.19 10.81L10.19 10.81Q10.42 10.63 10.71 10.51L10.71 10.51L10.71 10.51Q11.19 10.31 11.63 10.31L11.63 10.31L11.63 10.31Q12.07 10.31 12.37 10.39L12.37 10.39L12.37 10.39Q12.68 10.47 13.03 10.71L13.03 10.71L13.03 10.71Q13.38 10.95 13.64 11.35L13.64 11.35L13.64 11.35Q14.23 12.28 14.23 14.09L14.23 14.09L9.89 14.09L9.89 14.09Q9.89 15.91 10.81 16.58L10.81 16.58L10.81 16.58Q11.27 16.91 11.83 16.91L11.83 16.91L11.83 16.91Q12.89 16.91 13.62 15.60L13.62 15.60L14.25 16.03L14.25 16.03Q13.98 16.52 13.55 16.92L13.55 16.92L13.55 16.92Q12.73 17.67 11.93 17.67L11.93 17.67L11.93 17.67Q11.13 17.67 10.57 17.38L10.57 17.38L10.57 17.38Q10.01 17.08 9.67 16.58ZM9.93 13.32L9.93 13.32L13.32 13.32L13.32 13.32Q13.32 12.30 12.85 11.63L12.85 11.63L12.85 11.63Q12.46 11.07 11.72 11.07L11.72 11.07L11.72 11.07Q10.53 11.07 10.12 12.18L10.12 12.18L10.12 12.18Q9.93 12.70 9.93 13.32ZM15.29 15.84L15.29 15.84L15.29 15.84Q15.29 15.35 15.42 14.98L15.42 14.98L15.42 14.98Q15.54 14.62 15.80 14.33L15.80 14.33L15.80 14.33Q16.06 14.05 16.40 13.83L16.40 13.83L16.40 13.83Q16.73 13.61 17.23 13.43L17.23 13.43L17.23 13.43Q18.14 13.11 19.46 12.85L19.46 12.85L19.46 12.85Q19.46 11.77 19.04 11.41L19.04 11.41L19.04 11.41Q18.67 11.09 17.96 11.09L17.96 11.09L17.96 11.09Q17.10 11.09 16.48 11.74L16.48 11.74L16.48 11.74Q16.21 12.01 16.11 12.22L16.11 12.22L15.46 11.79L15.46 11.79Q16.23 10.32 18.07 10.32L18.07 10.32L18.07 10.32Q19.71 10.32 20.17 11.59L20.17 11.59L20.17 11.59Q20.36 12.10 20.36 12.83L20.36 12.83L20.36 16.58L20.36 16.58Q20.36 16.78 20.43 17.12L20.43 17.12L20.43 17.12Q20.51 17.47 20.57 17.60L20.57 17.60L19.66 17.60L19.66 17.60Q19.46 17.49 19.46 16.45L19.46 16.45L19.46 16.45Q18.49 17.68 17.33 17.68L17.33 17.68L17.33 17.68Q16.04 17.68 15.54 16.78L15.54 16.78L15.54 16.78Q15.29 16.32 15.29 15.84ZM16.37 15.05L16.37 15.05L16.37 15.05Q16.19 15.37 16.19 15.87L16.19 15.87L16.19 15.87Q16.19 16.38 16.55 16.65L16.55 16.65L16.55 16.65Q16.91 16.92 17.34 16.92L17.34 16.92L17.34 16.92Q17.77 16.92 18.10 16.79L18.10 16.79L18.10 16.79Q18.44 16.66 18.71 16.45L18.71 16.45L18.71 16.45Q19.21 16.08 19.46 15.78L19.46 15.78L19.46 13.62L19.46 13.62Q18.16 13.95 17.92 14.03L17.92 14.03L17.92 14.03Q16.71 14.42 16.37 15.05ZM22.93 17.61L22.03 17.61L22.03 7.24L22.93 7.24L22.93 17.61ZM25.46 11.15L24.24 11.15L24.24 10.38L25.46 10.38L25.46 7.75L26.36 7.75L26.36 10.38L28.01 10.38L28.01 11.15L26.36 11.15L26.36 15.72L26.36 15.72Q26.36 16.41 26.57 16.67L26.57 16.67L26.57 16.67Q26.78 16.92 27.27 16.92L27.27 16.92L27.27 16.92Q27.47 16.92 27.74 16.88L27.74 16.88L27.74 16.88Q28.01 16.85 28.01 16.84L28.01 16.84L28.01 17.52L28.01 17.52Q27.56 17.68 27.14 17.68L27.14 17.68L27.14 17.68Q26.71 17.68 26.55 17.66L26.55 17.66L26.55 17.66Q26.39 17.64 26.17 17.53L26.17 17.53L26.17 17.53Q25.94 17.42 25.80 17.23L25.80 17.23L25.80 17.23Q25.46 16.75 25.46 15.72L25.46 15.72L25.46 11.15ZM29.92 17.60L29.02 17.60L29.02 7.24L29.92 7.24L29.92 11.57L29.92 11.57Q30.93 10.60 31.58 10.40L31.58 10.40L31.58 10.40Q31.92 10.31 32.28 10.31L32.28 10.31L32.28 10.31Q33.07 10.31 33.57 10.79L33.57 10.79L33.57 10.79Q34.08 11.27 34.08 12.22L34.08 12.22L34.08 17.60L33.17 17.60L33.17 12.22L33.17 12.22Q33.17 11.71 32.81 11.39L32.81 11.39L32.81 11.39Q32.44 11.07 32.02 11.07L32.02 11.07L32.02 11.07Q31.01 11.07 29.92 12.26L29.92 12.26L29.92 17.60ZM41.45 8.09L38.50 8.09L38.50 7.24L45.42 7.24L45.42 8.09L42.46 8.09L42.46 17.60L41.45 17.60L41.45 8.09ZM46.02 17.60L45.12 17.60L45.12 17.60Q45.12 17.60 45.12 10.38L45.12 10.38L46.02 10.38L46.02 12.33L46.02 12.33Q46.34 11.61 46.51 11.35L46.51 11.35L46.51 11.35Q47.18 10.31 48.25 10.31L48.25 10.31L48.25 10.31Q48.33 10.31 48.49 10.32L48.49 10.32L48.49 11.09L48.49 11.09Q48.03 11.15 47.72 11.26L47.72 11.26L47.72 11.26Q47.41 11.38 47.12 11.62L47.12 11.62L47.12 11.62Q46.61 12.04 46.02 13.31L46.02 13.31L46.02 17.60ZM49.07 15.84L49.07 15.84L49.07 15.84Q49.07 15.35 49.19 14.98L49.19 14.98L49.19 14.98Q49.31 14.62 49.58 14.33L49.58 14.33L49.58 14.33Q49.84 14.05 50.18 13.83L50.18 13.83L50.18 13.83Q50.51 13.61 51.01 13.43L51.01 13.43L51.01 13.43Q51.92 13.11 53.23 12.85L53.23 12.85L53.23 12.85Q53.23 11.77 52.81 11.41L52.81 11.41L52.81 11.41Q52.45 11.09 51.74 11.09L51.74 11.09L51.74 11.09Q50.88 11.09 50.26 11.74L50.26 11.74L50.26 11.74Q49.99 12.01 49.89 12.22L49.89 12.22L49.24 11.79L49.24 11.79Q50.00 10.32 51.84 10.32L51.84 10.32L51.84 10.32Q53.49 10.32 53.95 11.59L53.95 11.59L53.95 11.59Q54.13 12.10 54.13 12.83L54.13 12.83L54.13 16.58L54.13 16.58Q54.13 16.78 54.21 17.12L54.21 17.12L54.21 17.12Q54.28 17.47 54.35 17.60L54.35 17.60L53.44 17.60L53.44 17.60Q53.23 17.49 53.23 16.45L53.23 16.45L53.23 16.45Q52.27 17.68 51.11 17.68L51.11 17.68L51.11 17.68Q49.82 17.68 49.32 16.78L49.32 16.78L49.32 16.78Q49.07 16.32 49.07 15.84ZM50.14 15.05L50.14 15.05L50.14 15.05Q49.97 15.37 49.97 15.87L49.97 15.87L49.97 15.87Q49.97 16.38 50.33 16.65L50.33 16.65L50.33 16.65Q50.68 16.92 51.12 16.92L51.12 16.92L51.12 16.92Q51.55 16.92 51.88 16.79L51.88 16.79L51.88 16.79Q52.21 16.66 52.49 16.45L52.49 16.45L52.49 16.45Q52.99 16.08 53.23 15.78L53.23 15.78L53.23 13.62L53.23 13.62Q51.93 13.95 51.69 14.03L51.69 14.03L51.69 14.03Q50.49 14.42 50.14 15.05ZM55.43 14.04L55.43 14.04L55.43 14.04Q55.43 10.31 58.34 10.31L58.34 10.31L58.34 10.31Q59.06 10.31 59.55 10.65L59.55 10.65L59.55 10.65Q60.03 10.99 60.19 11.27L60.19 11.27L60.19 11.27Q60.46 11.73 60.57 12.04L60.57 12.04L59.84 12.37L59.84 12.37Q59.83 12.23 59.69 11.96L59.69 11.96L59.69 11.96Q59.56 11.70 59.41 11.53L59.41 11.53L59.41 11.53Q59.26 11.35 58.98 11.21L58.98 11.21L58.98 11.21Q58.69 11.07 58.34 11.07L58.34 11.07L58.34 11.07Q56.33 11.07 56.33 13.98L56.33 13.98L56.33 13.98Q56.33 15.39 56.86 16.15L56.86 16.15L56.86 16.15Q57.39 16.91 58.34 16.91L58.34 16.91L58.34 16.91Q58.99 16.91 59.42 16.41L59.42 16.41L59.42 16.41Q59.79 15.98 59.92 15.64L59.92 15.64L59.99 15.49L60.70 15.83L60.70 15.83Q60.46 16.50 59.91 17.04L59.91 17.04L59.91 17.04Q59.66 17.27 59.24 17.47L59.24 17.47L59.24 17.47Q58.82 17.67 58.34 17.67L58.34 17.67L58.34 17.67Q56.85 17.67 56.14 16.72L56.14 16.72L56.14 16.72Q55.43 15.76 55.43 14.04ZM63.04 17.60L62.14 17.60L62.14 7.24L63.04 7.24L63.04 13.95L65.80 10.38L66.88 10.38L65.00 12.84L67.31 17.60L66.31 17.60L64.38 13.62L63.04 15.28L63.04 17.60Z"></path></g><!----><!----></svg>